<mxfile host="app.diagrams.net" modified="2022-01-25T05:44:10.069Z" agent="5.0 (Macintosh; Intel Mac OS X 10_15_7) AppleWebKit/537.36 (KHTML, like Gecko) Chrome/97.0.4692.99 Safari/537.36" etag="dOkXibtScmlsdGxkmGlZ" version="16.2.4" type="github" pages="2">
  <diagram id="w2BYYMY7xnv0MG828LZH" name="Page-1">
    <mxGraphModel dx="1186" dy="588" grid="1" gridSize="10" guides="1" tooltips="1" connect="1" arrows="1" fold="1" page="1" pageScale="1" pageWidth="827" pageHeight="1169" math="0" shadow="0">
      <root>
        <mxCell id="0" />
        <mxCell id="1" parent="0" />
        <mxCell id="GMrjsPBWYfHNVk1566hY-1" value="User" style="swimlane;fontStyle=0;childLayout=stackLayout;horizontal=1;startSize=26;horizontalStack=0;resizeParent=1;resizeParentMax=0;resizeLast=0;collapsible=1;marginBottom=0;align=center;fontSize=14;" parent="1" vertex="1">
          <mxGeometry x="40" y="40" width="160" height="70" as="geometry" />
        </mxCell>
        <mxCell id="GMrjsPBWYfHNVk1566hY-2" value="id" style="text;strokeColor=none;fillColor=none;spacingLeft=4;spacingRight=4;overflow=hidden;rotatable=0;points=[[0,0.5],[1,0.5]];portConstraint=eastwest;fontSize=12;" parent="GMrjsPBWYfHNVk1566hY-1" vertex="1">
          <mxGeometry y="26" width="160" height="44" as="geometry" />
        </mxCell>
        <mxCell id="GMrjsPBWYfHNVk1566hY-25" value="Commute" style="swimlane;fontStyle=0;childLayout=stackLayout;horizontal=1;startSize=26;horizontalStack=0;resizeParent=1;resizeParentMax=0;resizeLast=0;collapsible=1;marginBottom=0;align=center;fontSize=14;" parent="1" vertex="1">
          <mxGeometry x="360" y="40" width="160" height="406" as="geometry" />
        </mxCell>
        <mxCell id="GMrjsPBWYfHNVk1566hY-26" value="id: integer&#xa;" style="text;strokeColor=none;fillColor=none;spacingLeft=4;spacingRight=4;overflow=hidden;rotatable=0;points=[[0,0.5],[1,0.5]];portConstraint=eastwest;fontSize=12;" parent="GMrjsPBWYfHNVk1566hY-25" vertex="1">
          <mxGeometry y="26" width="160" height="24" as="geometry" />
        </mxCell>
        <mxCell id="GMrjsPBWYfHNVk1566hY-40" value="user_id: string" style="text;strokeColor=none;fillColor=none;spacingLeft=4;spacingRight=4;overflow=hidden;rotatable=0;points=[[0,0.5],[1,0.5]];portConstraint=eastwest;fontSize=12;" parent="GMrjsPBWYfHNVk1566hY-25" vertex="1">
          <mxGeometry y="50" width="160" height="24" as="geometry" />
        </mxCell>
        <mxCell id="GMrjsPBWYfHNVk1566hY-36" value="setup_id: integer" style="text;strokeColor=none;fillColor=none;spacingLeft=4;spacingRight=4;overflow=hidden;rotatable=0;points=[[0,0.5],[1,0.5]];portConstraint=eastwest;fontSize=12;" parent="GMrjsPBWYfHNVk1566hY-25" vertex="1">
          <mxGeometry y="74" width="160" height="24" as="geometry" />
        </mxCell>
        <mxCell id="GMrjsPBWYfHNVk1566hY-27" value="start_lat: float" style="text;strokeColor=none;fillColor=none;spacingLeft=4;spacingRight=4;overflow=hidden;rotatable=0;points=[[0,0.5],[1,0.5]];portConstraint=eastwest;fontSize=12;" parent="GMrjsPBWYfHNVk1566hY-25" vertex="1">
          <mxGeometry y="98" width="160" height="24" as="geometry" />
        </mxCell>
        <mxCell id="GMrjsPBWYfHNVk1566hY-29" value="start_lng: float" style="text;strokeColor=none;fillColor=none;spacingLeft=4;spacingRight=4;overflow=hidden;rotatable=0;points=[[0,0.5],[1,0.5]];portConstraint=eastwest;fontSize=12;" parent="GMrjsPBWYfHNVk1566hY-25" vertex="1">
          <mxGeometry y="122" width="160" height="24" as="geometry" />
        </mxCell>
        <mxCell id="GMrjsPBWYfHNVk1566hY-28" value="end_lat: float" style="text;strokeColor=none;fillColor=none;spacingLeft=4;spacingRight=4;overflow=hidden;rotatable=0;points=[[0,0.5],[1,0.5]];portConstraint=eastwest;fontSize=12;" parent="GMrjsPBWYfHNVk1566hY-25" vertex="1">
          <mxGeometry y="146" width="160" height="24" as="geometry" />
        </mxCell>
        <mxCell id="GMrjsPBWYfHNVk1566hY-30" value="end_lng: float" style="text;strokeColor=none;fillColor=none;spacingLeft=4;spacingRight=4;overflow=hidden;rotatable=0;points=[[0,0.5],[1,0.5]];portConstraint=eastwest;fontSize=12;" parent="GMrjsPBWYfHNVk1566hY-25" vertex="1">
          <mxGeometry y="170" width="160" height="28" as="geometry" />
        </mxCell>
        <mxCell id="GMrjsPBWYfHNVk1566hY-31" value="mode: string" style="text;strokeColor=none;fillColor=none;spacingLeft=4;spacingRight=4;overflow=hidden;rotatable=0;points=[[0,0.5],[1,0.5]];portConstraint=eastwest;fontSize=12;" parent="GMrjsPBWYfHNVk1566hY-25" vertex="1">
          <mxGeometry y="198" width="160" height="28" as="geometry" />
        </mxCell>
        <mxCell id="GMrjsPBWYfHNVk1566hY-32" value="search_area: integer" style="text;strokeColor=none;fillColor=none;spacingLeft=4;spacingRight=4;overflow=hidden;rotatable=0;points=[[0,0.5],[1,0.5]];portConstraint=eastwest;fontSize=12;" parent="GMrjsPBWYfHNVk1566hY-25" vertex="1">
          <mxGeometry y="226" width="160" height="28" as="geometry" />
        </mxCell>
        <mxCell id="GMrjsPBWYfHNVk1566hY-33" value="avoid: string" style="text;strokeColor=none;fillColor=none;spacingLeft=4;spacingRight=4;overflow=hidden;rotatable=0;points=[[0,0.5],[1,0.5]];portConstraint=eastwest;fontSize=12;" parent="GMrjsPBWYfHNVk1566hY-25" vertex="1">
          <mxGeometry y="254" width="160" height="28" as="geometry" />
        </mxCell>
        <mxCell id="GMrjsPBWYfHNVk1566hY-34" value="start_address: string" style="text;strokeColor=none;fillColor=none;spacingLeft=4;spacingRight=4;overflow=hidden;rotatable=0;points=[[0,0.5],[1,0.5]];portConstraint=eastwest;fontSize=12;" parent="GMrjsPBWYfHNVk1566hY-25" vertex="1">
          <mxGeometry y="282" width="160" height="28" as="geometry" />
        </mxCell>
        <mxCell id="GMrjsPBWYfHNVk1566hY-35" value="end_address: string" style="text;strokeColor=none;fillColor=none;spacingLeft=4;spacingRight=4;overflow=hidden;rotatable=0;points=[[0,0.5],[1,0.5]];portConstraint=eastwest;fontSize=12;" parent="GMrjsPBWYfHNVk1566hY-25" vertex="1">
          <mxGeometry y="310" width="160" height="24" as="geometry" />
        </mxCell>
        <mxCell id="GMrjsPBWYfHNVk1566hY-37" value="first_setup: boolean" style="text;strokeColor=none;fillColor=none;spacingLeft=4;spacingRight=4;overflow=hidden;rotatable=0;points=[[0,0.5],[1,0.5]];portConstraint=eastwest;fontSize=12;" parent="GMrjsPBWYfHNVk1566hY-25" vertex="1">
          <mxGeometry y="334" width="160" height="24" as="geometry" />
        </mxCell>
        <mxCell id="GMrjsPBWYfHNVk1566hY-38" value="start_city: string" style="text;strokeColor=none;fillColor=none;spacingLeft=4;spacingRight=4;overflow=hidden;rotatable=0;points=[[0,0.5],[1,0.5]];portConstraint=eastwest;fontSize=12;" parent="GMrjsPBWYfHNVk1566hY-25" vertex="1">
          <mxGeometry y="358" width="160" height="24" as="geometry" />
        </mxCell>
        <mxCell id="GMrjsPBWYfHNVk1566hY-39" value="end_city: string" style="text;strokeColor=none;fillColor=none;spacingLeft=4;spacingRight=4;overflow=hidden;rotatable=0;points=[[0,0.5],[1,0.5]];portConstraint=eastwest;fontSize=12;" parent="GMrjsPBWYfHNVk1566hY-25" vertex="1">
          <mxGeometry y="382" width="160" height="24" as="geometry" />
        </mxCell>
        <mxCell id="GMrjsPBWYfHNVk1566hY-45" value="" style="fontSize=12;html=1;endArrow=ERmandOne;startArrow=ERmandOne;rounded=0;exitX=1.001;exitY=0.547;exitDx=0;exitDy=0;exitPerimeter=0;entryX=-0.011;entryY=1.033;entryDx=0;entryDy=0;entryPerimeter=0;" parent="1" source="GMrjsPBWYfHNVk1566hY-2" target="GMrjsPBWYfHNVk1566hY-26" edge="1">
          <mxGeometry width="100" height="100" relative="1" as="geometry">
            <mxPoint x="190" y="210" as="sourcePoint" />
            <mxPoint x="310" y="120" as="targetPoint" />
          </mxGeometry>
        </mxCell>
        <mxCell id="GMrjsPBWYfHNVk1566hY-46" value="Favarite" style="swimlane;fontStyle=0;childLayout=stackLayout;horizontal=1;startSize=26;horizontalStack=0;resizeParent=1;resizeParentMax=0;resizeLast=0;collapsible=1;marginBottom=0;align=center;fontSize=14;" parent="1" vertex="1">
          <mxGeometry x="40" y="180" width="160" height="98" as="geometry" />
        </mxCell>
        <mxCell id="GMrjsPBWYfHNVk1566hY-47" value="id: integer&#xa;" style="text;strokeColor=none;fillColor=none;spacingLeft=4;spacingRight=4;overflow=hidden;rotatable=0;points=[[0,0.5],[1,0.5]];portConstraint=eastwest;fontSize=12;" parent="GMrjsPBWYfHNVk1566hY-46" vertex="1">
          <mxGeometry y="26" width="160" height="24" as="geometry" />
        </mxCell>
        <mxCell id="GMrjsPBWYfHNVk1566hY-48" value="user_id: string" style="text;strokeColor=none;fillColor=none;spacingLeft=4;spacingRight=4;overflow=hidden;rotatable=0;points=[[0,0.5],[1,0.5]];portConstraint=eastwest;fontSize=12;" parent="GMrjsPBWYfHNVk1566hY-46" vertex="1">
          <mxGeometry y="50" width="160" height="24" as="geometry" />
        </mxCell>
        <mxCell id="GMrjsPBWYfHNVk1566hY-49" value="place_id:string" style="text;strokeColor=none;fillColor=none;spacingLeft=4;spacingRight=4;overflow=hidden;rotatable=0;points=[[0,0.5],[1,0.5]];portConstraint=eastwest;fontSize=12;" parent="GMrjsPBWYfHNVk1566hY-46" vertex="1">
          <mxGeometry y="74" width="160" height="24" as="geometry" />
        </mxCell>
        <mxCell id="GMrjsPBWYfHNVk1566hY-62" value="" style="fontSize=12;html=1;endArrow=ERoneToMany;rounded=0;entryX=0.5;entryY=0;entryDx=0;entryDy=0;exitX=0.495;exitY=1.005;exitDx=0;exitDy=0;exitPerimeter=0;" parent="1" source="GMrjsPBWYfHNVk1566hY-2" target="GMrjsPBWYfHNVk1566hY-46" edge="1">
          <mxGeometry width="100" height="100" relative="1" as="geometry">
            <mxPoint x="370" y="390" as="sourcePoint" />
            <mxPoint x="470" y="290" as="targetPoint" />
          </mxGeometry>
        </mxCell>
        <mxCell id="GMrjsPBWYfHNVk1566hY-64" value="ViaPlace" style="swimlane;fontStyle=0;childLayout=stackLayout;horizontal=1;startSize=26;horizontalStack=0;resizeParent=1;resizeParentMax=0;resizeLast=0;collapsible=1;marginBottom=0;align=center;fontSize=14;" parent="1" vertex="1">
          <mxGeometry x="650" y="40" width="160" height="150" as="geometry" />
        </mxCell>
        <mxCell id="GMrjsPBWYfHNVk1566hY-65" value="id: integer&#xa;" style="text;strokeColor=none;fillColor=none;spacingLeft=4;spacingRight=4;overflow=hidden;rotatable=0;points=[[0,0.5],[1,0.5]];portConstraint=eastwest;fontSize=12;" parent="GMrjsPBWYfHNVk1566hY-64" vertex="1">
          <mxGeometry y="26" width="160" height="24" as="geometry" />
        </mxCell>
        <mxCell id="GMrjsPBWYfHNVk1566hY-66" value="commute_id: int" style="text;strokeColor=none;fillColor=none;spacingLeft=4;spacingRight=4;overflow=hidden;rotatable=0;points=[[0,0.5],[1,0.5]];portConstraint=eastwest;fontSize=12;" parent="GMrjsPBWYfHNVk1566hY-64" vertex="1">
          <mxGeometry y="50" width="160" height="24" as="geometry" />
        </mxCell>
        <mxCell id="GMrjsPBWYfHNVk1566hY-68" value="via_lat: float" style="text;strokeColor=none;fillColor=none;spacingLeft=4;spacingRight=4;overflow=hidden;rotatable=0;points=[[0,0.5],[1,0.5]];portConstraint=eastwest;fontSize=12;" parent="GMrjsPBWYfHNVk1566hY-64" vertex="1">
          <mxGeometry y="74" width="160" height="24" as="geometry" />
        </mxCell>
        <mxCell id="GMrjsPBWYfHNVk1566hY-69" value="via_lng: float" style="text;strokeColor=none;fillColor=none;spacingLeft=4;spacingRight=4;overflow=hidden;rotatable=0;points=[[0,0.5],[1,0.5]];portConstraint=eastwest;fontSize=12;" parent="GMrjsPBWYfHNVk1566hY-64" vertex="1">
          <mxGeometry y="98" width="160" height="24" as="geometry" />
        </mxCell>
        <mxCell id="GMrjsPBWYfHNVk1566hY-74" value="order: int" style="text;strokeColor=none;fillColor=none;spacingLeft=4;spacingRight=4;overflow=hidden;rotatable=0;points=[[0,0.5],[1,0.5]];portConstraint=eastwest;fontSize=12;" parent="GMrjsPBWYfHNVk1566hY-64" vertex="1">
          <mxGeometry y="122" width="160" height="28" as="geometry" />
        </mxCell>
        <mxCell id="GMrjsPBWYfHNVk1566hY-80" value="Setup" style="swimlane;fontStyle=0;childLayout=stackLayout;horizontal=1;startSize=26;horizontalStack=0;resizeParent=1;resizeParentMax=0;resizeLast=0;collapsible=1;marginBottom=0;align=center;fontSize=14;" parent="1" vertex="1">
          <mxGeometry x="370" y="550" width="160" height="122" as="geometry" />
        </mxCell>
        <mxCell id="GMrjsPBWYfHNVk1566hY-81" value="id: integer&#xa;" style="text;strokeColor=none;fillColor=none;spacingLeft=4;spacingRight=4;overflow=hidden;rotatable=0;points=[[0,0.5],[1,0.5]];portConstraint=eastwest;fontSize=12;" parent="GMrjsPBWYfHNVk1566hY-80" vertex="1">
          <mxGeometry y="26" width="160" height="24" as="geometry" />
        </mxCell>
        <mxCell id="GMrjsPBWYfHNVk1566hY-82" value="content: string" style="text;strokeColor=none;fillColor=none;spacingLeft=4;spacingRight=4;overflow=hidden;rotatable=0;points=[[0,0.5],[1,0.5]];portConstraint=eastwest;fontSize=12;" parent="GMrjsPBWYfHNVk1566hY-80" vertex="1">
          <mxGeometry y="50" width="160" height="24" as="geometry" />
        </mxCell>
        <mxCell id="GMrjsPBWYfHNVk1566hY-83" value="label: string" style="text;strokeColor=none;fillColor=none;spacingLeft=4;spacingRight=4;overflow=hidden;rotatable=0;points=[[0,0.5],[1,0.5]];portConstraint=eastwest;fontSize=12;" parent="GMrjsPBWYfHNVk1566hY-80" vertex="1">
          <mxGeometry y="74" width="160" height="24" as="geometry" />
        </mxCell>
        <mxCell id="GMrjsPBWYfHNVk1566hY-87" value="next_setup: string" style="text;strokeColor=none;fillColor=none;spacingLeft=4;spacingRight=4;overflow=hidden;rotatable=0;points=[[0,0.5],[1,0.5]];portConstraint=eastwest;fontSize=12;" parent="GMrjsPBWYfHNVk1566hY-80" vertex="1">
          <mxGeometry y="98" width="160" height="24" as="geometry" />
        </mxCell>
        <mxCell id="GMrjsPBWYfHNVk1566hY-88" value="" style="fontSize=12;html=1;endArrow=ERoneToMany;rounded=0;entryX=0.476;entryY=1.132;entryDx=0;entryDy=0;entryPerimeter=0;exitX=0.414;exitY=-0.002;exitDx=0;exitDy=0;exitPerimeter=0;" parent="1" source="GMrjsPBWYfHNVk1566hY-80" target="GMrjsPBWYfHNVk1566hY-39" edge="1">
          <mxGeometry width="100" height="100" relative="1" as="geometry">
            <mxPoint x="410" y="580" as="sourcePoint" />
            <mxPoint x="510" y="480" as="targetPoint" />
          </mxGeometry>
        </mxCell>
        <mxCell id="GMrjsPBWYfHNVk1566hY-89" value="" style="fontSize=12;html=1;endArrow=ERmany;rounded=0;entryX=1;entryY=0.5;entryDx=0;entryDy=0;exitX=0;exitY=0.5;exitDx=0;exitDy=0;" parent="1" source="GMrjsPBWYfHNVk1566hY-68" target="GMrjsPBWYfHNVk1566hY-36" edge="1">
          <mxGeometry width="100" height="100" relative="1" as="geometry">
            <mxPoint x="450" y="300" as="sourcePoint" />
            <mxPoint x="550" y="200" as="targetPoint" />
          </mxGeometry>
        </mxCell>
      </root>
    </mxGraphModel>
  </diagram>
  <diagram id="NdMOPdIiX6Z3ZChOOfDx" name="Page-2">
    <mxGraphModel dx="1183" dy="735" grid="1" gridSize="10" guides="1" tooltips="1" connect="1" arrows="1" fold="1" page="1" pageScale="1" pageWidth="1500" pageHeight="1000" math="0" shadow="0">
      <root>
        <mxCell id="Xx7lHUqrx4QzdEExww0S-0" />
        <mxCell id="Xx7lHUqrx4QzdEExww0S-1" parent="Xx7lHUqrx4QzdEExww0S-0" />
        <mxCell id="Xx7lHUqrx4QzdEExww0S-6" style="edgeStyle=orthogonalEdgeStyle;rounded=0;orthogonalLoop=1;jettySize=auto;html=1;" edge="1" parent="Xx7lHUqrx4QzdEExww0S-1" source="Xx7lHUqrx4QzdEExww0S-5">
          <mxGeometry relative="1" as="geometry">
            <mxPoint x="130" y="130" as="targetPoint" />
          </mxGeometry>
        </mxCell>
        <mxCell id="Xx7lHUqrx4QzdEExww0S-7" value="設定を促す" style="edgeLabel;html=1;align=center;verticalAlign=middle;resizable=0;points=[];" vertex="1" connectable="0" parent="Xx7lHUqrx4QzdEExww0S-6">
          <mxGeometry x="-0.24" y="2" relative="1" as="geometry">
            <mxPoint x="28" as="offset" />
          </mxGeometry>
        </mxCell>
        <mxCell id="Xx7lHUqrx4QzdEExww0S-5" value="友達追加" style="ellipse;whiteSpace=wrap;html=1;align=center;" vertex="1" parent="Xx7lHUqrx4QzdEExww0S-1">
          <mxGeometry x="80" y="40" width="100" height="40" as="geometry" />
        </mxCell>
        <mxCell id="Xx7lHUqrx4QzdEExww0S-10" style="edgeStyle=orthogonalEdgeStyle;rounded=0;orthogonalLoop=1;jettySize=auto;html=1;" edge="1" parent="Xx7lHUqrx4QzdEExww0S-1" source="Xx7lHUqrx4QzdEExww0S-9">
          <mxGeometry relative="1" as="geometry">
            <mxPoint x="130" y="240" as="targetPoint" />
            <Array as="points">
              <mxPoint x="130" y="230" />
              <mxPoint x="130" y="230" />
            </Array>
          </mxGeometry>
        </mxCell>
        <mxCell id="Xx7lHUqrx4QzdEExww0S-16" value="初期設定" style="edgeLabel;html=1;align=center;verticalAlign=middle;resizable=0;points=[];" vertex="1" connectable="0" parent="Xx7lHUqrx4QzdEExww0S-10">
          <mxGeometry x="-0.4" y="2" relative="1" as="geometry">
            <mxPoint as="offset" />
          </mxGeometry>
        </mxCell>
        <mxCell id="Xx7lHUqrx4QzdEExww0S-11" style="edgeStyle=orthogonalEdgeStyle;rounded=0;orthogonalLoop=1;jettySize=auto;html=1;" edge="1" parent="Xx7lHUqrx4QzdEExww0S-1">
          <mxGeometry relative="1" as="geometry">
            <mxPoint x="260" y="240" as="targetPoint" />
            <mxPoint x="260" y="160" as="sourcePoint" />
          </mxGeometry>
        </mxCell>
        <mxCell id="Xx7lHUqrx4QzdEExww0S-21" value="ヘルプ" style="edgeLabel;html=1;align=center;verticalAlign=middle;resizable=0;points=[];" vertex="1" connectable="0" parent="Xx7lHUqrx4QzdEExww0S-11">
          <mxGeometry y="-1" relative="1" as="geometry">
            <mxPoint x="1" as="offset" />
          </mxGeometry>
        </mxCell>
        <mxCell id="Xx7lHUqrx4QzdEExww0S-12" style="edgeStyle=orthogonalEdgeStyle;rounded=0;orthogonalLoop=1;jettySize=auto;html=1;" edge="1" parent="Xx7lHUqrx4QzdEExww0S-1">
          <mxGeometry relative="1" as="geometry">
            <mxPoint x="380" y="240" as="targetPoint" />
            <mxPoint x="380" y="160" as="sourcePoint" />
          </mxGeometry>
        </mxCell>
        <mxCell id="Xx7lHUqrx4QzdEExww0S-13" style="edgeStyle=orthogonalEdgeStyle;rounded=0;orthogonalLoop=1;jettySize=auto;html=1;" edge="1" parent="Xx7lHUqrx4QzdEExww0S-1" target="Xx7lHUqrx4QzdEExww0S-19">
          <mxGeometry relative="1" as="geometry">
            <mxPoint x="500" y="240" as="targetPoint" />
            <mxPoint x="500" y="160" as="sourcePoint" />
            <Array as="points">
              <mxPoint x="500" y="160" />
              <mxPoint x="500" y="240" />
            </Array>
          </mxGeometry>
        </mxCell>
        <mxCell id="Xx7lHUqrx4QzdEExww0S-27" value="友達解除" style="edgeLabel;html=1;align=center;verticalAlign=middle;resizable=0;points=[];" vertex="1" connectable="0" parent="Xx7lHUqrx4QzdEExww0S-13">
          <mxGeometry x="-0.175" y="3" relative="1" as="geometry">
            <mxPoint x="117" y="7" as="offset" />
          </mxGeometry>
        </mxCell>
        <mxCell id="Xx7lHUqrx4QzdEExww0S-14" style="edgeStyle=orthogonalEdgeStyle;rounded=0;orthogonalLoop=1;jettySize=auto;html=1;exitX=1;exitY=0.5;exitDx=0;exitDy=0;" edge="1" parent="Xx7lHUqrx4QzdEExww0S-1" source="Xx7lHUqrx4QzdEExww0S-9" target="Xx7lHUqrx4QzdEExww0S-20">
          <mxGeometry relative="1" as="geometry">
            <mxPoint x="620" y="240" as="targetPoint" />
            <Array as="points">
              <mxPoint x="620" y="160" />
              <mxPoint x="620" y="240" />
            </Array>
          </mxGeometry>
        </mxCell>
        <mxCell id="Xx7lHUqrx4QzdEExww0S-36" style="edgeStyle=orthogonalEdgeStyle;rounded=0;orthogonalLoop=1;jettySize=auto;html=1;" edge="1" parent="Xx7lHUqrx4QzdEExww0S-1" source="Xx7lHUqrx4QzdEExww0S-9">
          <mxGeometry relative="1" as="geometry">
            <mxPoint x="760" y="240" as="targetPoint" />
          </mxGeometry>
        </mxCell>
        <mxCell id="Xx7lHUqrx4QzdEExww0S-37" style="edgeStyle=orthogonalEdgeStyle;rounded=0;orthogonalLoop=1;jettySize=auto;html=1;exitX=1;exitY=0.5;exitDx=0;exitDy=0;" edge="1" parent="Xx7lHUqrx4QzdEExww0S-1" source="Xx7lHUqrx4QzdEExww0S-9">
          <mxGeometry relative="1" as="geometry">
            <mxPoint x="880" y="240" as="targetPoint" />
          </mxGeometry>
        </mxCell>
        <mxCell id="Xx7lHUqrx4QzdEExww0S-38" style="edgeStyle=orthogonalEdgeStyle;rounded=0;orthogonalLoop=1;jettySize=auto;html=1;" edge="1" parent="Xx7lHUqrx4QzdEExww0S-1" source="Xx7lHUqrx4QzdEExww0S-9" target="Xx7lHUqrx4QzdEExww0S-44">
          <mxGeometry relative="1" as="geometry">
            <mxPoint x="1002.5" y="240" as="targetPoint" />
          </mxGeometry>
        </mxCell>
        <mxCell id="Xx7lHUqrx4QzdEExww0S-39" style="edgeStyle=orthogonalEdgeStyle;rounded=0;orthogonalLoop=1;jettySize=auto;html=1;" edge="1" parent="Xx7lHUqrx4QzdEExww0S-1" source="Xx7lHUqrx4QzdEExww0S-9">
          <mxGeometry relative="1" as="geometry">
            <mxPoint x="1120" y="240" as="targetPoint" />
          </mxGeometry>
        </mxCell>
        <mxCell id="Xx7lHUqrx4QzdEExww0S-9" value="コマンド選択" style="shape=rhombus;perimeter=rhombusPerimeter;whiteSpace=wrap;html=1;align=center;" vertex="1" parent="Xx7lHUqrx4QzdEExww0S-1">
          <mxGeometry x="70" y="130" width="120" height="60" as="geometry" />
        </mxCell>
        <mxCell id="Xx7lHUqrx4QzdEExww0S-23" style="edgeStyle=orthogonalEdgeStyle;rounded=0;orthogonalLoop=1;jettySize=auto;html=1;" edge="1" parent="Xx7lHUqrx4QzdEExww0S-1" source="Xx7lHUqrx4QzdEExww0S-15">
          <mxGeometry relative="1" as="geometry">
            <mxPoint x="130" y="340" as="targetPoint" />
          </mxGeometry>
        </mxCell>
        <mxCell id="Xx7lHUqrx4QzdEExww0S-24" value="フォーム送信" style="edgeLabel;html=1;align=center;verticalAlign=middle;resizable=0;points=[];" vertex="1" connectable="0" parent="Xx7lHUqrx4QzdEExww0S-23">
          <mxGeometry x="-0.0333" relative="1" as="geometry">
            <mxPoint as="offset" />
          </mxGeometry>
        </mxCell>
        <mxCell id="Xx7lHUqrx4QzdEExww0S-15" value="設定用サイトに遷移" style="rounded=1;arcSize=10;whiteSpace=wrap;html=1;align=center;" vertex="1" parent="Xx7lHUqrx4QzdEExww0S-1">
          <mxGeometry x="75" y="240" width="110" height="40" as="geometry" />
        </mxCell>
        <mxCell id="Xx7lHUqrx4QzdEExww0S-31" style="edgeStyle=orthogonalEdgeStyle;rounded=0;orthogonalLoop=1;jettySize=auto;html=1;entryX=1;entryY=0.5;entryDx=0;entryDy=0;" edge="1" parent="Xx7lHUqrx4QzdEExww0S-1" source="Xx7lHUqrx4QzdEExww0S-17" target="Xx7lHUqrx4QzdEExww0S-29">
          <mxGeometry relative="1" as="geometry">
            <Array as="points">
              <mxPoint x="260" y="625" />
            </Array>
          </mxGeometry>
        </mxCell>
        <mxCell id="Xx7lHUqrx4QzdEExww0S-17" value="ヘルプメッセージ" style="rounded=1;arcSize=10;whiteSpace=wrap;html=1;align=center;" vertex="1" parent="Xx7lHUqrx4QzdEExww0S-1">
          <mxGeometry x="210" y="240" width="100" height="40" as="geometry" />
        </mxCell>
        <mxCell id="Xx7lHUqrx4QzdEExww0S-32" style="edgeStyle=orthogonalEdgeStyle;rounded=0;orthogonalLoop=1;jettySize=auto;html=1;exitX=0.5;exitY=1;exitDx=0;exitDy=0;entryX=1;entryY=0.5;entryDx=0;entryDy=0;" edge="1" parent="Xx7lHUqrx4QzdEExww0S-1" source="Xx7lHUqrx4QzdEExww0S-18" target="Xx7lHUqrx4QzdEExww0S-29">
          <mxGeometry relative="1" as="geometry">
            <mxPoint x="260" y="470" as="targetPoint" />
            <Array as="points">
              <mxPoint x="380" y="625" />
            </Array>
          </mxGeometry>
        </mxCell>
        <mxCell id="Xx7lHUqrx4QzdEExww0S-18" value="初期設定促す" style="rounded=1;arcSize=10;whiteSpace=wrap;html=1;align=center;" vertex="1" parent="Xx7lHUqrx4QzdEExww0S-1">
          <mxGeometry x="330" y="440" width="100" height="40" as="geometry" />
        </mxCell>
        <mxCell id="Xx7lHUqrx4QzdEExww0S-33" style="edgeStyle=orthogonalEdgeStyle;rounded=0;orthogonalLoop=1;jettySize=auto;html=1;" edge="1" parent="Xx7lHUqrx4QzdEExww0S-1" source="Xx7lHUqrx4QzdEExww0S-19">
          <mxGeometry relative="1" as="geometry">
            <mxPoint x="500" y="360" as="targetPoint" />
            <Array as="points">
              <mxPoint x="500" y="340" />
              <mxPoint x="500" y="340" />
            </Array>
          </mxGeometry>
        </mxCell>
        <mxCell id="Xx7lHUqrx4QzdEExww0S-19" value="" style="rounded=1;arcSize=10;whiteSpace=wrap;html=1;align=center;" vertex="1" parent="Xx7lHUqrx4QzdEExww0S-1">
          <mxGeometry x="450" y="240" width="100" height="40" as="geometry" />
        </mxCell>
        <mxCell id="Xx7lHUqrx4QzdEExww0S-35" style="edgeStyle=orthogonalEdgeStyle;rounded=0;orthogonalLoop=1;jettySize=auto;html=1;entryX=0.5;entryY=0;entryDx=0;entryDy=0;" edge="1" parent="Xx7lHUqrx4QzdEExww0S-1" source="Xx7lHUqrx4QzdEExww0S-20" target="Xx7lHUqrx4QzdEExww0S-34">
          <mxGeometry relative="1" as="geometry">
            <Array as="points">
              <mxPoint x="620" y="450" />
            </Array>
          </mxGeometry>
        </mxCell>
        <mxCell id="Xx7lHUqrx4QzdEExww0S-20" value="テーブル削除" style="rounded=1;arcSize=10;whiteSpace=wrap;html=1;align=center;" vertex="1" parent="Xx7lHUqrx4QzdEExww0S-1">
          <mxGeometry x="570" y="240" width="100" height="40" as="geometry" />
        </mxCell>
        <mxCell id="Xx7lHUqrx4QzdEExww0S-26" style="edgeStyle=orthogonalEdgeStyle;rounded=0;orthogonalLoop=1;jettySize=auto;html=1;entryX=0.5;entryY=0;entryDx=0;entryDy=0;" edge="1" parent="Xx7lHUqrx4QzdEExww0S-1" source="Xx7lHUqrx4QzdEExww0S-25" target="Xx7lHUqrx4QzdEExww0S-29">
          <mxGeometry relative="1" as="geometry">
            <mxPoint x="130" y="440" as="targetPoint" />
          </mxGeometry>
        </mxCell>
        <mxCell id="Xx7lHUqrx4QzdEExww0S-25" value="設定完了メッセ" style="rounded=1;arcSize=10;whiteSpace=wrap;html=1;align=center;" vertex="1" parent="Xx7lHUqrx4QzdEExww0S-1">
          <mxGeometry x="80" y="340" width="100" height="40" as="geometry" />
        </mxCell>
        <mxCell id="Xx7lHUqrx4QzdEExww0S-30" style="edgeStyle=orthogonalEdgeStyle;rounded=0;orthogonalLoop=1;jettySize=auto;html=1;entryX=0;entryY=0.5;entryDx=0;entryDy=0;" edge="1" parent="Xx7lHUqrx4QzdEExww0S-1" source="Xx7lHUqrx4QzdEExww0S-29" target="Xx7lHUqrx4QzdEExww0S-9">
          <mxGeometry relative="1" as="geometry">
            <mxPoint x="40" y="90" as="targetPoint" />
            <Array as="points">
              <mxPoint x="30" y="625" />
              <mxPoint x="30" y="160" />
            </Array>
          </mxGeometry>
        </mxCell>
        <mxCell id="Xx7lHUqrx4QzdEExww0S-29" value="コマンド選択に戻る" style="ellipse;whiteSpace=wrap;html=1;align=center;" vertex="1" parent="Xx7lHUqrx4QzdEExww0S-1">
          <mxGeometry x="70" y="600" width="120" height="50" as="geometry" />
        </mxCell>
        <mxCell id="Xx7lHUqrx4QzdEExww0S-34" value="終了" style="ellipse;whiteSpace=wrap;html=1;align=center;" vertex="1" parent="Xx7lHUqrx4QzdEExww0S-1">
          <mxGeometry x="570" y="450" width="100" height="40" as="geometry" />
        </mxCell>
        <mxCell id="Xx7lHUqrx4QzdEExww0S-40" value="Entity" style="rounded=1;arcSize=10;whiteSpace=wrap;html=1;align=center;" vertex="1" parent="Xx7lHUqrx4QzdEExww0S-1">
          <mxGeometry x="710" y="240" width="100" height="40" as="geometry" />
        </mxCell>
        <mxCell id="Xx7lHUqrx4QzdEExww0S-43" value="Entity" style="rounded=1;arcSize=10;whiteSpace=wrap;html=1;align=center;" vertex="1" parent="Xx7lHUqrx4QzdEExww0S-1">
          <mxGeometry x="830" y="240" width="100" height="40" as="geometry" />
        </mxCell>
        <mxCell id="Xx7lHUqrx4QzdEExww0S-44" value="Entity" style="rounded=1;arcSize=10;whiteSpace=wrap;html=1;align=center;" vertex="1" parent="Xx7lHUqrx4QzdEExww0S-1">
          <mxGeometry x="952.5" y="240" width="100" height="40" as="geometry" />
        </mxCell>
        <mxCell id="Xx7lHUqrx4QzdEExww0S-45" value="Entity" style="rounded=1;arcSize=10;whiteSpace=wrap;html=1;align=center;" vertex="1" parent="Xx7lHUqrx4QzdEExww0S-1">
          <mxGeometry x="1070" y="240" width="100" height="40" as="geometry" />
        </mxCell>
        <mxCell id="Xx7lHUqrx4QzdEExww0S-46" value="Entity" style="rounded=1;arcSize=10;whiteSpace=wrap;html=1;align=center;" vertex="1" parent="Xx7lHUqrx4QzdEExww0S-1">
          <mxGeometry x="330" y="240" width="100" height="40" as="geometry" />
        </mxCell>
      </root>
    </mxGraphModel>
  </diagram>
</mxfile>
